<?xml version="1.0" encoding="UTF-8" standalone="no"?>
<!DOCTYPE svg PUBLIC "-//W3C//DTD SVG 1.1//EN"
 "http://www.w3.org/Graphics/SVG/1.1/DTD/svg11.dtd">
<!-- Generated by graphviz version 2.43.0 (0)
 -->
<!-- Title: SeedifyArchitecture Pages: 1 -->
<svg width="1008pt" height="259pt"
 viewBox="0.00 0.00 1008.00 259.30" xmlns="http://www.w3.org/2000/svg" xmlns:xlink="http://www.w3.org/1999/xlink">
<g id="graph0" class="graph" transform="scale(0.4 0.4) rotate(0) translate(36 617)">
<title>SeedifyArchitecture</title>
<polygon fill="#0a0e27" stroke="transparent" points="-36,36 -36,-617 2502.5,-617 2502.5,36 -36,36"/>
<g id="clust1" class="cluster">
<title>cluster_legend</title>
<polygon fill="#0a0e27" stroke="#333344" stroke-dasharray="5,2" points="1854,-121 1854,-573 2045,-573 2045,-121 1854,-121"/>
<text text-anchor="middle" x="1886" y="-560.2" font-family="Helvetica,sans-Serif" font-size="11.00" fill="#888888"> &#160;Legend</text>
</g>
<!-- title -->
<g id="node1" class="node">
<title>title</title>
<path fill="transparent" stroke="transparent" d="M993.5,-550C993.5,-550 368.5,-550 368.5,-550 362.5,-550 356.5,-544 356.5,-538 356.5,-538 356.5,-516 356.5,-516 356.5,-510 362.5,-504 368.5,-504 368.5,-504 993.5,-504 993.5,-504 999.5,-504 1005.5,-510 1005.5,-516 1005.5,-516 1005.5,-538 1005.5,-538 1005.5,-544 999.5,-550 993.5,-550"/>
<text text-anchor="middle" x="681" y="-521.4" font-family="Helvetica,sans-Serif" font-weight="bold" font-size="22.00" fill="#00ff88">🌲 &#160;SEEDIFY &#160;— &#160;System Architecture &#160;· &#160;April 2026</text>
</g>
<!-- pwa -->
<g id="node2" class="node">
<title>pwa</title>
<path fill="#1a3a5c" stroke="transparent" d="M1230.5,-437C1230.5,-437 1059.5,-437 1059.5,-437 1053.5,-437 1047.5,-431 1047.5,-425 1047.5,-425 1047.5,-385 1047.5,-385 1047.5,-379 1053.5,-373 1059.5,-373 1059.5,-373 1230.5,-373 1230.5,-373 1236.5,-373 1242.5,-379 1242.5,-385 1242.5,-385 1242.5,-425 1242.5,-425 1242.5,-431 1236.5,-437 1230.5,-437"/>
<text text-anchor="middle" x="1145" y="-415.6" font-family="Helvetica,sans-Serif" font-weight="bold" font-size="13.00" fill="white">🌐 React PWA</text>
<text text-anchor="middle" x="1145" y="-401.6" font-family="Helvetica,sans-Serif" font-weight="bold" font-size="13.00" fill="white">Next.js · TS · Tailwind</text>
<text text-anchor="middle" x="1145" y="-387.6" font-family="Helvetica,sans-Serif" font-weight="bold" font-size="13.00" fill="white">Vercel</text>
</g>
<!-- fastapi -->
<g id="node5" class="node">
<title>fastapi</title>
<path fill="#0d2b3e" stroke="transparent" d="M1245,-308C1245,-308 1063,-308 1063,-308 1057,-308 1051,-302 1051,-296 1051,-296 1051,-256 1051,-256 1051,-250 1057,-244 1063,-244 1063,-244 1245,-244 1245,-244 1251,-244 1257,-250 1257,-256 1257,-256 1257,-296 1257,-296 1257,-302 1251,-308 1245,-308"/>
<text text-anchor="middle" x="1154" y="-286.6" font-family="Helvetica,sans-Serif" font-weight="bold" font-size="13.00" fill="white">⚡ FastAPI Backend</text>
<text text-anchor="middle" x="1154" y="-272.6" font-family="Helvetica,sans-Serif" font-weight="bold" font-size="13.00" fill="white">JWT · Streaming · Tools</text>
<text text-anchor="middle" x="1154" y="-258.6" font-family="Helvetica,sans-Serif" font-weight="bold" font-size="13.00" fill="white">Port 8000</text>
</g>
<!-- pwa&#45;&gt;fastapi -->
<g id="edge1" class="edge">
<title>pwa&#45;&gt;fastapi</title>
<path fill="none" stroke="#00ff88" stroke-width="2" d="M1147.2,-372.93C1148.39,-356.17 1149.87,-335.29 1151.14,-317.3"/>
<polygon fill="#00ff88" stroke="#00ff88" stroke-width="2" points="1154.3,-317.39 1151.79,-308.19 1148.01,-316.94 1154.3,-317.39"/>
<text text-anchor="middle" x="1127.49" y="-343.64" font-family="Helvetica,sans-Serif" font-size="10.00" fill="#cccccc">REST/WS</text>
</g>
<!-- telegram -->
<g id="node3" class="node">
<title>telegram</title>
<path fill="#1a3a5c" stroke="transparent" d="M1466,-552C1466,-552 1316,-552 1316,-552 1310,-552 1304,-546 1304,-540 1304,-540 1304,-514 1304,-514 1304,-508 1310,-502 1316,-502 1316,-502 1466,-502 1466,-502 1472,-502 1478,-508 1478,-514 1478,-514 1478,-540 1478,-540 1478,-546 1472,-552 1466,-552"/>
<text text-anchor="middle" x="1391" y="-530.6" font-family="Helvetica,sans-Serif" font-weight="bold" font-size="13.00" fill="white">📱 Telegram Bot</text>
<text text-anchor="middle" x="1391" y="-516.6" font-family="Helvetica,sans-Serif" font-weight="bold" font-size="13.00" fill="white">OpenClaw Channel</text>
</g>
<!-- agent -->
<g id="node4" class="node">
<title>agent</title>
<path fill="#2a1a4e" stroke="transparent" d="M1484.5,-437C1484.5,-437 1297.5,-437 1297.5,-437 1291.5,-437 1285.5,-431 1285.5,-425 1285.5,-425 1285.5,-385 1285.5,-385 1285.5,-379 1291.5,-373 1297.5,-373 1297.5,-373 1484.5,-373 1484.5,-373 1490.5,-373 1496.5,-379 1496.5,-385 1496.5,-385 1496.5,-425 1496.5,-425 1496.5,-431 1490.5,-437 1484.5,-437"/>
<text text-anchor="middle" x="1391" y="-415.6" font-family="Helvetica,sans-Serif" font-weight="bold" font-size="13.00" fill="white">🧠 OpenClaw Agent</text>
<text text-anchor="middle" x="1391" y="-401.6" font-family="Helvetica,sans-Serif" font-weight="bold" font-size="13.00" fill="white">Orchestrator · Sessions</text>
<text text-anchor="middle" x="1391" y="-387.6" font-family="Helvetica,sans-Serif" font-weight="bold" font-size="13.00" fill="white">Heartbeat · Tool Calling</text>
</g>
<!-- telegram&#45;&gt;agent -->
<g id="edge2" class="edge">
<title>telegram&#45;&gt;agent</title>
<path fill="none" stroke="#00ff88" stroke-width="2" d="M1391,-501.72C1391,-485.78 1391,-464.56 1391,-446.15"/>
<polygon fill="#00ff88" stroke="#00ff88" stroke-width="2" points="1394.15,-446.1 1391,-437.1 1387.85,-446.1 1394.15,-446.1"/>
<text text-anchor="middle" x="1366" y="-472.44" font-family="Helvetica,sans-Serif" font-size="10.00" fill="#cccccc">messages</text>
</g>
<!-- agent&#45;&gt;fastapi -->
<g id="edge3" class="edge">
<title>agent&#45;&gt;fastapi</title>
<path fill="none" stroke="#bb88ff" stroke-width="2" d="M1333.02,-372.93C1299.02,-354.71 1255.94,-331.62 1220.55,-312.66"/>
<polygon fill="#bb88ff" stroke="#bb88ff" stroke-width="2" points="1221.62,-309.66 1212.2,-308.19 1218.64,-315.21 1221.62,-309.66"/>
<text text-anchor="middle" x="1260.25" y="-343.63" font-family="Helvetica,sans-Serif" font-size="10.00" fill="#cccccc">tools</text>
</g>
<!-- cron -->
<g id="node6" class="node">
<title>cron</title>
<path fill="#2a1a4e" stroke="transparent" d="M1462,-301C1462,-301 1320,-301 1320,-301 1314,-301 1308,-295 1308,-289 1308,-289 1308,-263 1308,-263 1308,-257 1314,-251 1320,-251 1320,-251 1462,-251 1462,-251 1468,-251 1474,-257 1474,-263 1474,-263 1474,-289 1474,-289 1474,-295 1468,-301 1462,-301"/>
<text text-anchor="middle" x="1391" y="-279.6" font-family="Helvetica,sans-Serif" font-weight="bold" font-size="13.00" fill="white">⏰ Cron Scheduler</text>
<text text-anchor="middle" x="1391" y="-265.6" font-family="Helvetica,sans-Serif" font-weight="bold" font-size="13.00" fill="white">12 Active Jobs</text>
</g>
<!-- agent&#45;&gt;cron -->
<g id="edge4" class="edge">
<title>agent&#45;&gt;cron</title>
<path fill="none" stroke="#bb88ff" stroke-width="2" d="M1377.24,-372.93C1374.69,-354 1374.59,-329.81 1376.93,-310.46"/>
<polygon fill="#bb88ff" stroke="#bb88ff" stroke-width="2" points="1380.08,-310.76 1378.28,-301.39 1373.84,-309.83 1380.08,-310.76"/>
<text text-anchor="middle" x="1354.27" y="-340.28" font-family="Helvetica,sans-Serif" font-size="10.00" fill="#cccccc">dispatch</text>
</g>
<!-- weaviate -->
<g id="node7" class="node">
<title>weaviate</title>
<path fill="#0d2b3e" stroke="transparent" d="M690,-179C690,-179 494,-179 494,-179 488,-179 482,-173 482,-167 482,-167 482,-127 482,-127 482,-121 488,-115 494,-115 494,-115 690,-115 690,-115 696,-115 702,-121 702,-127 702,-127 702,-167 702,-167 702,-173 696,-179 690,-179"/>
<text text-anchor="middle" x="592" y="-157.6" font-family="Helvetica,sans-Serif" font-weight="bold" font-size="13.00" fill="white">🔍 Weaviate</text>
<text text-anchor="middle" x="592" y="-143.6" font-family="Helvetica,sans-Serif" font-weight="bold" font-size="13.00" fill="white">Vector Search · IdeaSeed</text>
<text text-anchor="middle" x="592" y="-129.6" font-family="Helvetica,sans-Serif" font-weight="bold" font-size="13.00" fill="white">Tenant Isolation · :8080</text>
</g>
<!-- fastapi&#45;&gt;weaviate -->
<g id="edge6" class="edge">
<title>fastapi&#45;&gt;weaviate</title>
<path fill="none" stroke="#00d4ff" stroke-width="2" d="M1050.97,-252.33C963.82,-233.08 835.65,-204.57 724,-179 719.78,-178.03 715.48,-177.04 711.14,-176.04"/>
<polygon fill="#00d4ff" stroke="#00d4ff" stroke-width="2" points="711.66,-172.93 702.18,-173.97 710.24,-179.07 711.66,-172.93"/>
<text text-anchor="middle" x="860.06" y="-216.53" font-family="Helvetica,sans-Serif" font-size="10.00" fill="#cccccc">search</text>
</g>
<!-- postgres -->
<g id="node8" class="node">
<title>postgres</title>
<path fill="#0d2b3e" stroke="transparent" d="M1543.5,-179C1543.5,-179 1372.5,-179 1372.5,-179 1366.5,-179 1360.5,-173 1360.5,-167 1360.5,-167 1360.5,-127 1360.5,-127 1360.5,-121 1366.5,-115 1372.5,-115 1372.5,-115 1543.5,-115 1543.5,-115 1549.5,-115 1555.5,-121 1555.5,-127 1555.5,-127 1555.5,-167 1555.5,-167 1555.5,-173 1549.5,-179 1543.5,-179"/>
<text text-anchor="middle" x="1458" y="-157.6" font-family="Helvetica,sans-Serif" font-weight="bold" font-size="13.00" fill="white">🐘 PostgreSQL</text>
<text text-anchor="middle" x="1458" y="-143.6" font-family="Helvetica,sans-Serif" font-weight="bold" font-size="13.00" fill="white">Users · Ratings · Auth</text>
<text text-anchor="middle" x="1458" y="-129.6" font-family="Helvetica,sans-Serif" font-weight="bold" font-size="13.00" fill="white">:5432</text>
</g>
<!-- fastapi&#45;&gt;postgres -->
<g id="edge7" class="edge">
<title>fastapi&#45;&gt;postgres</title>
<path fill="none" stroke="#00d4ff" stroke-width="2" d="M1228.37,-243.93C1272.8,-225.37 1329.33,-201.75 1375.18,-182.6"/>
<polygon fill="#00d4ff" stroke="#00d4ff" stroke-width="2" points="1376.52,-185.45 1383.61,-179.08 1374.09,-179.64 1376.52,-185.45"/>
<text text-anchor="middle" x="1296.51" y="-214.5" font-family="Helvetica,sans-Serif" font-size="10.00" fill="#cccccc">SQL</text>
</g>
<!-- redis -->
<g id="node9" class="node">
<title>redis</title>
<path fill="#0d2b3e" stroke="transparent" d="M1824,-179C1824,-179 1698,-179 1698,-179 1692,-179 1686,-173 1686,-167 1686,-167 1686,-127 1686,-127 1686,-121 1692,-115 1698,-115 1698,-115 1824,-115 1824,-115 1830,-115 1836,-121 1836,-127 1836,-127 1836,-167 1836,-167 1836,-173 1830,-179 1824,-179"/>
<text text-anchor="middle" x="1761" y="-157.6" font-family="Helvetica,sans-Serif" font-weight="bold" font-size="13.00" fill="white">📦 Redis</text>
<text text-anchor="middle" x="1761" y="-143.6" font-family="Helvetica,sans-Serif" font-weight="bold" font-size="13.00" fill="white">Queues · Cache</text>
<text text-anchor="middle" x="1761" y="-129.6" font-family="Helvetica,sans-Serif" font-weight="bold" font-size="13.00" fill="white">:6379</text>
</g>
<!-- fastapi&#45;&gt;redis -->
<g id="edge8" class="edge">
<title>fastapi&#45;&gt;redis</title>
<path fill="none" stroke="#00d4ff" stroke-width="2" d="M1257.35,-250.35C1267.35,-248.13 1277.36,-245.98 1287,-244 1448.84,-210.79 1492.05,-216.29 1653,-179 1660.82,-177.19 1668.91,-175.16 1676.98,-173.03"/>
<polygon fill="#00d4ff" stroke="#00d4ff" stroke-width="2" points="1677.85,-176.06 1685.73,-170.68 1676.22,-169.97 1677.85,-176.06"/>
<text text-anchor="middle" x="1456.63" y="-215.77" font-family="Helvetica,sans-Serif" font-size="10.00" fill="#cccccc">queue</text>
</g>
<!-- openrouter -->
<g id="node13" class="node">
<title>openrouter</title>
<path fill="#3a2a00" stroke="transparent" d="M426.5,-172C426.5,-172 239.5,-172 239.5,-172 233.5,-172 227.5,-166 227.5,-160 227.5,-160 227.5,-134 227.5,-134 227.5,-128 233.5,-122 239.5,-122 239.5,-122 426.5,-122 426.5,-122 432.5,-122 438.5,-128 438.5,-134 438.5,-134 438.5,-160 438.5,-160 438.5,-166 432.5,-172 426.5,-172"/>
<text text-anchor="middle" x="333" y="-150.6" font-family="Helvetica,sans-Serif" font-weight="bold" font-size="13.00" fill="white">🤖 OpenRouter</text>
<text text-anchor="middle" x="333" y="-136.6" font-family="Helvetica,sans-Serif" font-weight="bold" font-size="13.00" fill="white">Nemotron · GPT&#45;4o&#45;mini</text>
</g>
<!-- fastapi&#45;&gt;openrouter -->
<g id="edge13" class="edge">
<title>fastapi&#45;&gt;openrouter</title>
<path fill="none" stroke="#ffaa00" stroke-width="2" d="M1050.87,-264.06C914.85,-248.88 668.34,-218.73 460,-179 452.06,-177.49 443.87,-175.79 435.65,-174"/>
<polygon fill="#ffaa00" stroke="#ffaa00" stroke-width="2" points="436.21,-170.9 426.74,-172.02 434.84,-177.05 436.21,-170.9"/>
<text text-anchor="middle" x="727.91" y="-227.48" font-family="Helvetica,sans-Serif" font-size="10.00" fill="#cccccc">LLM</text>
</g>
<!-- openai -->
<g id="node14" class="node">
<title>openai</title>
<path fill="#3a2a00" stroke="transparent" d="M937,-165C937,-165 757,-165 757,-165 751,-165 745,-159 745,-153 745,-153 745,-141 745,-141 745,-135 751,-129 757,-129 757,-129 937,-129 937,-129 943,-129 949,-135 949,-141 949,-141 949,-153 949,-153 949,-159 943,-165 937,-165"/>
<text text-anchor="middle" x="847" y="-143.6" font-family="Helvetica,sans-Serif" font-weight="bold" font-size="13.00" fill="white">🧩 OpenAI Embeddings</text>
</g>
<!-- fastapi&#45;&gt;openai -->
<g id="edge14" class="edge">
<title>fastapi&#45;&gt;openai</title>
<path fill="none" stroke="#ffaa00" stroke-width="2" d="M1078.9,-243.93C1022.3,-220.52 946.26,-189.06 896.94,-168.66"/>
<polygon fill="#ffaa00" stroke="#ffaa00" stroke-width="2" points="897.88,-165.64 888.36,-165.11 895.47,-171.46 897.88,-165.64"/>
<text text-anchor="middle" x="966.68" y="-207.54" font-family="Helvetica,sans-Serif" font-size="10.00" fill="#cccccc">embed</text>
</g>
<!-- notion -->
<g id="node15" class="node">
<title>notion</title>
<path fill="#3a2a00" stroke="transparent" d="M943.5,-50C943.5,-50 774.5,-50 774.5,-50 768.5,-50 762.5,-44 762.5,-38 762.5,-38 762.5,-12 762.5,-12 762.5,-6 768.5,0 774.5,0 774.5,0 943.5,0 943.5,0 949.5,0 955.5,-6 955.5,-12 955.5,-12 955.5,-38 955.5,-38 955.5,-44 949.5,-50 943.5,-50"/>
<text text-anchor="middle" x="859" y="-28.6" font-family="Helvetica,sans-Serif" font-weight="bold" font-size="13.00" fill="white">📋 Notion API</text>
<text text-anchor="middle" x="859" y="-14.6" font-family="Helvetica,sans-Serif" font-weight="bold" font-size="13.00" fill="white">PKM · Journal · Seeds</text>
</g>
<!-- fastapi&#45;&gt;notion -->
<g id="edge17" class="edge">
<title>fastapi&#45;&gt;notion</title>
<path fill="none" stroke="#ffaa00" stroke-width="2" d="M1257.08,-250.88C1267.19,-248.54 1277.29,-246.22 1287,-244 1424.52,-212.56 1670.41,-220.71 1577,-115 1537.16,-69.91 1154.71,-42.46 964.85,-31.5"/>
<polygon fill="#ffaa00" stroke="#ffaa00" stroke-width="2" points="964.85,-28.35 955.68,-30.98 964.49,-34.64 964.85,-28.35"/>
<text text-anchor="middle" x="1099.18" y="-44.23" font-family="Helvetica,sans-Serif" font-size="10.00" fill="#cccccc">CRUD</text>
</g>
<!-- exa -->
<g id="node16" class="node">
<title>exa</title>
<path fill="#3a2a00" stroke="transparent" d="M1119.5,-165C1119.5,-165 1004.5,-165 1004.5,-165 998.5,-165 992.5,-159 992.5,-153 992.5,-153 992.5,-141 992.5,-141 992.5,-135 998.5,-129 1004.5,-129 1004.5,-129 1119.5,-129 1119.5,-129 1125.5,-129 1131.5,-135 1131.5,-141 1131.5,-141 1131.5,-153 1131.5,-153 1131.5,-159 1125.5,-165 1119.5,-165"/>
<text text-anchor="middle" x="1062" y="-143.6" font-family="Helvetica,sans-Serif" font-weight="bold" font-size="13.00" fill="white">🔎 Exa Search</text>
</g>
<!-- fastapi&#45;&gt;exa -->
<g id="edge15" class="edge">
<title>fastapi&#45;&gt;exa</title>
<path fill="none" stroke="#ffaa00" stroke-width="2" d="M1131.49,-243.93C1115.55,-221.92 1094.46,-192.81 1079.71,-172.45"/>
<polygon fill="#ffaa00" stroke="#ffaa00" stroke-width="2" points="1082.22,-170.55 1074.39,-165.11 1077.12,-174.24 1082.22,-170.55"/>
<text text-anchor="middle" x="1086.52" y="-207.63" font-family="Helvetica,sans-Serif" font-size="10.00" fill="#cccccc">search</text>
</g>
<!-- bfl -->
<g id="node17" class="node">
<title>bfl</title>
<path fill="#3a2a00" stroke="transparent" d="M1305,-165C1305,-165 1187,-165 1187,-165 1181,-165 1175,-159 1175,-153 1175,-153 1175,-141 1175,-141 1175,-135 1181,-129 1187,-129 1187,-129 1305,-129 1305,-129 1311,-129 1317,-135 1317,-141 1317,-141 1317,-153 1317,-153 1317,-159 1311,-165 1305,-165"/>
<text text-anchor="middle" x="1246" y="-143.6" font-family="Helvetica,sans-Serif" font-weight="bold" font-size="13.00" fill="white">🎨 BFL Images</text>
</g>
<!-- fastapi&#45;&gt;bfl -->
<g id="edge16" class="edge">
<title>fastapi&#45;&gt;bfl</title>
<path fill="none" stroke="#ffaa00" stroke-width="2" d="M1176.51,-243.93C1192.45,-221.92 1213.54,-192.81 1228.29,-172.45"/>
<polygon fill="#ffaa00" stroke="#ffaa00" stroke-width="2" points="1230.88,-174.24 1233.61,-165.11 1225.78,-170.55 1230.88,-174.24"/>
<text text-anchor="middle" x="1186.48" y="-207.63" font-family="Helvetica,sans-Serif" font-size="10.00" fill="#cccccc">images</text>
</g>
<!-- cron&#45;&gt;agent -->
<g id="edge5" class="edge">
<title>cron&#45;&gt;agent</title>
<path fill="none" stroke="#bb88ff" stroke-width="2" d="M1404.32,-301.39C1407.65,-319.05 1408.36,-343.31 1406.47,-363.82"/>
<polygon fill="#bb88ff" stroke="#bb88ff" stroke-width="2" points="1403.32,-363.63 1405.42,-372.93 1409.58,-364.35 1403.32,-363.63"/>
<text text-anchor="middle" x="1390.48" y="-329.15" font-family="Helvetica,sans-Serif" font-size="10.00" fill="#cccccc">events</text>
</g>
<!-- voice -->
<g id="node10" class="node">
<title>voice</title>
<path fill="#0d3320" stroke="transparent" d="M429,-430C429,-430 237,-430 237,-430 231,-430 225,-424 225,-418 225,-418 225,-392 225,-392 225,-386 231,-380 237,-380 237,-380 429,-380 429,-380 435,-380 441,-386 441,-392 441,-392 441,-418 441,-418 441,-424 435,-430 429,-430"/>
<text text-anchor="middle" x="333" y="-408.6" font-family="Helvetica,sans-Serif" font-weight="bold" font-size="13.00" fill="white">🎙️ Voice → 📝 Transcribe</text>
<text text-anchor="middle" x="333" y="-394.6" font-family="Helvetica,sans-Serif" font-weight="bold" font-size="13.00" fill="white">→ 🅿️ Notion Parking Lot</text>
</g>
<!-- enrich -->
<g id="node11" class="node">
<title>enrich</title>
<path fill="#0d3320" stroke="transparent" d="M434,-308C434,-308 232,-308 232,-308 226,-308 220,-302 220,-296 220,-296 220,-256 220,-256 220,-250 226,-244 232,-244 232,-244 434,-244 434,-244 440,-244 446,-250 446,-256 446,-256 446,-296 446,-296 446,-302 440,-308 434,-308"/>
<text text-anchor="middle" x="333" y="-286.6" font-family="Helvetica,sans-Serif" font-weight="bold" font-size="13.00" fill="white">🧬 Enrichment Pipeline</text>
<text text-anchor="middle" x="333" y="-272.6" font-family="Helvetica,sans-Serif" font-weight="bold" font-size="13.00" fill="white">Chunk · Extract · Backlink</text>
<text text-anchor="middle" x="333" y="-258.6" font-family="Helvetica,sans-Serif" font-weight="bold" font-size="13.00" fill="white">Re&#45;embed · Monitor</text>
</g>
<!-- voice&#45;&gt;enrich -->
<g id="edge9" class="edge">
<title>voice&#45;&gt;enrich</title>
<path fill="none" stroke="#00ff88" stroke-width="2" d="M333,-379.81C333,-362.21 333,-337.97 333,-317.45"/>
<polygon fill="#00ff88" stroke="#00ff88" stroke-width="2" points="336.15,-317.32 333,-308.32 329.85,-317.32 336.15,-317.32"/>
<text text-anchor="middle" x="323" y="-347.12" font-family="Helvetica,sans-Serif" font-size="10.00" fill="#cccccc">text</text>
</g>
<!-- enrich&#45;&gt;weaviate -->
<g id="edge10" class="edge">
<title>enrich&#45;&gt;weaviate</title>
<path fill="none" stroke="#00ff88" stroke-width="2" d="M396.36,-243.93C433.83,-225.56 481.4,-202.23 520.25,-183.18"/>
<polygon fill="#00ff88" stroke="#00ff88" stroke-width="2" points="521.7,-185.98 528.4,-179.19 518.93,-180.32 521.7,-185.98"/>
<text text-anchor="middle" x="445.31" y="-214.59" font-family="Helvetica,sans-Serif" font-size="10.00" fill="#cccccc">embed</text>
</g>
<!-- garden -->
<g id="node12" class="node">
<title>garden</title>
<path fill="#0d3320" stroke="transparent" d="M172,-179C172,-179 12,-179 12,-179 6,-179 0,-173 0,-167 0,-167 0,-127 0,-127 0,-121 6,-115 12,-115 12,-115 172,-115 172,-115 178,-115 184,-121 184,-127 184,-127 184,-167 184,-167 184,-173 178,-179 172,-179"/>
<text text-anchor="middle" x="92" y="-157.6" font-family="Helvetica,sans-Serif" font-weight="bold" font-size="13.00" fill="white">🌱 Idea Garden</text>
<text text-anchor="middle" x="92" y="-143.6" font-family="Helvetica,sans-Serif" font-weight="bold" font-size="13.00" fill="white">Nemotron Synthesis</text>
<text text-anchor="middle" x="92" y="-129.6" font-family="Helvetica,sans-Serif" font-weight="bold" font-size="13.00" fill="white">BFL Concept Maps</text>
</g>
<!-- enrich&#45;&gt;garden -->
<g id="edge11" class="edge">
<title>enrich&#45;&gt;garden</title>
<path fill="none" stroke="#00ff88" stroke-width="2" d="M274.04,-243.93C239.32,-225.64 195.29,-202.43 159.22,-183.42"/>
<polygon fill="#00ff88" stroke="#00ff88" stroke-width="2" points="160.61,-180.6 151.18,-179.19 157.68,-186.17 160.61,-180.6"/>
<text text-anchor="middle" x="198.48" y="-214.49" font-family="Helvetica,sans-Serif" font-size="10.00" fill="#cccccc">synth</text>
</g>
<!-- enrich&#45;&gt;openrouter -->
<g id="edge18" class="edge">
<title>enrich&#45;&gt;openrouter</title>
<path fill="none" stroke="#ffaa00" stroke-width="2" stroke-dasharray="5,2" d="M333,-243.93C333,-225 333,-200.81 333,-181.46"/>
<polygon fill="#ffaa00" stroke="#ffaa00" stroke-width="2" points="336.15,-181.39 333,-172.39 329.85,-181.39 336.15,-181.39"/>
</g>
<!-- garden&#45;&gt;notion -->
<g id="edge12" class="edge">
<title>garden&#45;&gt;notion</title>
<path fill="none" stroke="#00ff88" stroke-width="2" d="M184.15,-119.85C191.52,-118.09 198.86,-116.45 206,-115 397.21,-76.14 623.44,-49.56 753.18,-36.14"/>
<polygon fill="#00ff88" stroke="#00ff88" stroke-width="2" points="753.73,-39.25 762.36,-35.2 753.08,-32.99 753.73,-39.25"/>
<text text-anchor="middle" x="460.89" y="-73.23" font-family="Helvetica,sans-Serif" font-size="10.00" fill="#cccccc">sync</text>
</g>
<!-- l1 -->
<g id="node18" class="node">
<title>l1</title>
<path fill="transparent" stroke="transparent" d="M1998,-545C1998,-545 1874,-545 1874,-545 1868,-545 1862,-539 1862,-533 1862,-533 1862,-521 1862,-521 1862,-515 1868,-509 1874,-509 1874,-509 1998,-509 1998,-509 2004,-509 2010,-515 2010,-521 2010,-521 2010,-533 2010,-533 2010,-539 2004,-545 1998,-545"/>
<text text-anchor="middle" x="1936" y="-524.5" font-family="Helvetica,sans-Serif" font-weight="bold" font-size="10.00" fill="#00ff88">🟢 User → Backend</text>
</g>
<!-- l2 -->
<g id="node19" class="node">
<title>l2</title>
<path fill="transparent" stroke="transparent" d="M1997,-423C1997,-423 1885,-423 1885,-423 1879,-423 1873,-417 1873,-411 1873,-411 1873,-399 1873,-399 1873,-393 1879,-387 1885,-387 1885,-387 1997,-387 1997,-387 2003,-387 2009,-393 2009,-399 2009,-399 2009,-411 2009,-411 2009,-417 2003,-423 1997,-423"/>
<text text-anchor="middle" x="1941" y="-402.5" font-family="Helvetica,sans-Serif" font-weight="bold" font-size="10.00" fill="#bb88ff">🟣 Agent Comms</text>
</g>
<!-- l1&#45;&gt;l2 -->
<!-- l3 -->
<g id="node20" class="node">
<title>l3</title>
<path fill="transparent" stroke="transparent" d="M2000,-294C2000,-294 1904,-294 1904,-294 1898,-294 1892,-288 1892,-282 1892,-282 1892,-270 1892,-270 1892,-264 1898,-258 1904,-258 1904,-258 2000,-258 2000,-258 2006,-258 2012,-264 2012,-270 2012,-270 2012,-282 2012,-282 2012,-288 2006,-294 2000,-294"/>
<text text-anchor="middle" x="1952" y="-273.5" font-family="Helvetica,sans-Serif" font-weight="bold" font-size="10.00" fill="#00d4ff">🔵 Data Flows</text>
</g>
<!-- l2&#45;&gt;l3 -->
<!-- l4 -->
<g id="node21" class="node">
<title>l4</title>
<path fill="transparent" stroke="transparent" d="M2024.5,-165C2024.5,-165 1891.5,-165 1891.5,-165 1885.5,-165 1879.5,-159 1879.5,-153 1879.5,-153 1879.5,-141 1879.5,-141 1879.5,-135 1885.5,-129 1891.5,-129 1891.5,-129 2024.5,-129 2024.5,-129 2030.5,-129 2036.5,-135 2036.5,-141 2036.5,-141 2036.5,-153 2036.5,-153 2036.5,-159 2030.5,-165 2024.5,-165"/>
<text text-anchor="middle" x="1958" y="-144.5" font-family="Helvetica,sans-Serif" font-weight="bold" font-size="10.00" fill="#ffaa00">🟡 External Services</text>
</g>
<!-- l3&#45;&gt;l4 -->
<!-- status -->
<g id="node22" class="node">
<title>status</title>
<path fill="transparent" stroke="transparent" d="M2454.5,-545C2454.5,-545 2065.5,-545 2065.5,-545 2059.5,-545 2053.5,-539 2053.5,-533 2053.5,-533 2053.5,-521 2053.5,-521 2053.5,-515 2059.5,-509 2065.5,-509 2065.5,-509 2454.5,-509 2454.5,-509 2460.5,-509 2466.5,-515 2466.5,-521 2466.5,-521 2466.5,-533 2466.5,-533 2466.5,-539 2460.5,-545 2454.5,-545"/>
<text text-anchor="middle" x="2260" y="-524.2" font-family="Helvetica,sans-Serif" font-weight="bold" font-size="11.00" fill="#00ff88">✅ All Services Healthy &#160;· &#160;Docker Compose &#160;· &#160;Hetzner Server</text>
</g>
</g>
</svg>
